<?xml version="1.0" encoding="UTF-8"?>
<svg xmlns="http://www.w3.org/2000/svg" width="201" height="42" viewBox="0 0 201 42" fill="none">
  <path fill-rule="evenodd" clip-rule="evenodd" d="M11.3878 11.7976C11.3878 11.5119 11.3352 11.2262 11.2299 10.9405C11.1246 10.6548 10.9766 10.3928 10.785 10.1546C10.5934 9.91639 10.3639 9.7159 10.0958 9.55453C9.82773 9.39247 9.53087 9.28768 9.20524 9.23948C8.93715 9.22062 8.68591 9.20385 8.45151 9.18988C8.21712 9.17521 7.96166 9.16823 7.68446 9.16823H5.7033V14.4131H8.34484C8.51678 14.4131 8.66907 14.4082 8.80381 14.3984C8.93715 14.3893 9.08593 14.3746 9.24875 14.3558C9.5842 14.3174 9.88527 14.2196 10.1534 14.0624C10.4207 13.9052 10.646 13.7103 10.8278 13.477C11.0095 13.2437 11.1485 12.9817 11.2446 12.6904C11.3394 12.4005 11.3878 12.1029 11.3878 11.7976ZM0.147217 5.45325C0.147217 5.25276 0.199851 5.09349 0.30512 4.97403C0.410389 4.85528 0.568292 4.7959 0.778829 4.7959H10.053C11.0383 4.7959 11.9619 4.97892 12.8237 5.34567C13.6848 5.71242 14.4357 6.2105 15.0771 6.83921C15.7179 7.46791 16.2232 8.20351 16.5916 9.04667C16.96 9.88984 17.1446 10.7882 17.1446 11.7403C17.1446 12.3886 17.0555 13.0055 16.8793 13.5908C16.7018 14.1769 16.4554 14.7246 16.1396 15.2346C15.8238 15.7445 15.4484 16.2063 15.0126 16.6205C14.5767 17.0348 14.1009 17.3897 13.5837 17.6851L17.2737 24.601C17.3404 24.7351 17.4267 24.8923 17.532 25.0725C17.6373 25.2541 17.6899 25.4113 17.6899 25.5447C17.6899 25.697 17.6394 25.8137 17.5397 25.8947C17.4387 25.9757 17.3018 26.0162 17.1306 26.0162H12.2061C12.0433 26.0162 11.8973 25.9687 11.7682 25.873C11.639 25.778 11.5555 25.6495 11.5169 25.4874L8.02904 18.9565H5.7033V25.4015C5.7033 25.8116 5.48294 26.0162 5.04291 26.0162H0.778829C0.58724 26.0162 0.434249 25.966 0.319857 25.8661C0.204764 25.7662 0.147217 25.6111 0.147217 25.4015V5.45325Z" fill="white"></path>
  <path fill-rule="evenodd" clip-rule="evenodd" d="M19.7424 5.45301C19.7424 5.25322 19.7972 5.09394 19.9074 4.97449C20.0168 4.85503 20.1719 4.79565 20.3726 4.79565H34.6148C34.826 4.79565 34.9881 4.85713 35.1032 4.98077C35.2183 5.10442 35.2752 5.27068 35.2752 5.47955V9.0129C35.2752 9.17497 35.2183 9.32935 35.1032 9.47605C34.9881 9.62345 34.8211 9.6968 34.6008 9.6968H25.2985V13.2413H32.4757C32.6582 13.2413 32.8084 13.2839 32.9284 13.3699C33.0477 13.4551 33.108 13.5983 33.108 13.7981V16.885C33.108 17.0185 33.0547 17.147 32.9501 17.2707C32.8442 17.395 32.6919 17.4565 32.4905 17.4565H25.2985V21.1142H34.9453C35.3755 21.1142 35.5917 21.3335 35.5917 21.7701V25.3607C35.5917 25.4558 35.5531 25.5417 35.4766 25.6171C35.438 25.8833 35.2422 26.016 34.8878 26.016H20.3726C20.1811 26.016 20.0288 25.9664 19.9144 25.8665C19.8 25.7659 19.7424 25.6115 19.7424 25.4013V5.45301Z" fill="white"></path>
  <path fill-rule="evenodd" clip-rule="evenodd" d="M47.2623 11.4691C47.0805 11.9546 46.896 12.4792 46.7093 13.0408C46.5233 13.6032 46.3387 14.1697 46.157 14.7418C45.9745 15.3133 45.7906 15.8777 45.604 16.4352C45.4173 16.9919 45.2334 17.5138 45.0516 18H49.4589L47.2623 11.4691ZM44.6495 5.35311C44.6586 5.29583 44.6902 5.23435 44.7429 5.16729C44.7948 5.10093 44.8601 5.03876 44.9365 4.98147C45.013 4.92419 45.0945 4.87948 45.1808 4.84595C45.2671 4.81242 45.3478 4.79565 45.425 4.79565H49.0996C49.2624 4.79565 49.4013 4.84595 49.5164 4.94585C49.6308 5.04574 49.7172 5.13376 49.774 5.2099L50.1333 6.02443L57.6706 25.3733C57.7463 25.564 57.7323 25.7184 57.627 25.8372C57.5218 25.9566 57.34 26.016 57.0817 26.016H52.9615C52.7412 26.016 52.5713 25.9762 52.452 25.8945C52.332 25.8141 52.2387 25.6779 52.172 25.4872C51.9804 25.0017 51.7938 24.5183 51.612 24.037C51.4302 23.5564 51.2485 23.0722 51.0667 22.5867H43.4438C43.2614 23.0722 43.0775 23.5564 42.8908 24.037C42.7042 24.5183 42.5203 25.0017 42.3378 25.4872C42.2136 25.84 41.9701 26.016 41.6058 26.016H37.3712C37.1888 26.016 37.0386 25.9685 36.9193 25.8735C36.7993 25.7778 36.7775 25.6353 36.8547 25.4446L44.6495 5.35311Z" fill="white"></path>
  <path fill-rule="evenodd" clip-rule="evenodd" d="M65.2785 9.91152V20.9007H66.4849C66.7046 20.9007 66.92 20.893 67.1306 20.879C67.3411 20.865 67.5516 20.8483 67.7622 20.8287C68.4801 20.7721 69.1503 20.5982 69.7721 20.3069C70.3939 20.017 70.9371 19.6356 71.4017 19.164C71.8655 18.6925 72.2291 18.1378 72.4922 17.4993C72.7554 16.8616 72.8873 16.1658 72.8873 15.4127C72.8873 14.6129 72.7365 13.8773 72.4347 13.2053C72.1336 12.5339 71.7245 11.9527 71.208 11.4616C70.6907 10.9712 70.0851 10.5898 69.3917 10.3188C68.6977 10.047 67.958 9.91152 67.1734 9.91152H65.2785ZM78.414 15.4274C78.414 16.4375 78.2848 17.3974 78.0266 18.3069C77.7683 19.2164 77.3992 20.0645 76.9212 20.8504C76.4426 21.6363 75.8714 22.3488 75.2061 22.9866C74.5401 23.6251 73.8039 24.1686 72.9954 24.6156C72.1863 25.0634 71.3132 25.4085 70.3749 25.6516C69.4366 25.8947 68.4654 26.0163 67.4604 26.0163H60.3835C60.2109 26.0163 60.0579 25.9785 59.9239 25.9017C59.7898 25.8256 59.7231 25.6642 59.7231 25.4162V5.45327C59.7231 5.25278 59.7779 5.09071 59.8881 4.96707C59.9982 4.84342 60.1632 4.78125 60.3835 4.78125H67.4604C68.4654 4.78125 69.4345 4.90559 70.3679 5.15289C71.3006 5.40088 72.1715 5.75296 72.9807 6.21052C73.7891 6.66808 74.5288 7.21575 75.1983 7.85354C75.8679 8.49203 76.4405 9.20667 76.9142 9.99744C77.3879 10.7882 77.7564 11.6405 78.0195 12.5549C78.282 13.47 78.414 14.4271 78.414 15.4274Z" fill="white"></path>
  <path fill-rule="evenodd" clip-rule="evenodd" d="M88.1123 12.6266L91.5792 5.23855C91.636 5.12468 91.6845 5.04085 91.7224 4.98846C91.7603 4.93607 91.7989 4.89834 91.8375 4.87459C91.8754 4.85084 91.9161 4.83617 91.9589 4.83128C92.0024 4.82709 92.0529 4.81521 92.1098 4.79565H97.6371C97.7037 4.79565 97.7592 4.81731 97.8027 4.85992C97.8455 4.90323 97.8672 4.95283 97.8672 5.01011C97.8672 5.1149 97.7999 5.23435 97.6651 5.36708L90.8613 17.3566V25.3447C90.8613 25.7925 90.6409 26.016 90.2023 26.016H85.9066C85.7157 26.016 85.5677 25.9566 85.4631 25.8372C85.3585 25.7184 85.3052 25.5543 85.3052 25.3447V17.3279L78.5154 5.36708C78.3904 5.24344 78.3287 5.12468 78.3287 5.01011C78.3287 4.95283 78.3476 4.90323 78.3855 4.85992C78.4234 4.81731 78.4768 4.79565 78.5434 4.79565H84.07C84.1374 4.81521 84.1907 4.82709 84.2293 4.83128C84.2672 4.83617 84.3051 4.85084 84.3437 4.87459C84.3816 4.89834 84.4195 4.93607 84.4581 4.98846C84.4967 5.04085 84.5494 5.12468 84.6167 5.23855L88.1123 12.6266Z" fill="white"></path>
  <path fill-rule="evenodd" clip-rule="evenodd" d="M101.154 5.42461C101.173 5.25276 101.24 5.10536 101.355 4.98172C101.47 4.85807 101.633 4.7959 101.843 4.7959H106.81C107.164 4.7959 107.394 4.97683 107.499 5.33868L111.404 18.3139L115.338 5.33868C115.472 4.97683 115.715 4.7959 116.069 4.7959H120.98C121.151 4.7959 121.307 4.85528 121.446 4.97473C121.585 5.09349 121.664 5.24368 121.683 5.42461C122.017 8.77773 122.36 12.105 122.709 15.4064C123.059 18.7071 123.401 22.0344 123.736 25.3875V25.4588C123.736 25.8304 123.525 26.0162 123.104 26.0162H119.041C118.601 26.0162 118.372 25.8067 118.352 25.3875L117.104 14.3411L113.873 25.4588C113.854 25.5545 113.785 25.6684 113.665 25.8018C113.545 25.9352 113.428 26.0016 113.313 26.0016H109.538C109.423 26.0016 109.301 25.938 109.172 25.8095C109.042 25.6802 108.973 25.5643 108.963 25.4588L105.733 14.3704L104.484 25.3875C104.465 25.8067 104.231 26.0162 103.781 26.0162H99.718C99.3068 26.0162 99.1005 25.8067 99.1005 25.3875L101.154 5.42461Z" fill="white"></path>
  <path fill-rule="evenodd" clip-rule="evenodd" d="M127.023 5.42461C127.023 5.25276 127.075 5.10536 127.181 4.98172C127.286 4.85807 127.444 4.7959 127.655 4.7959H131.876C132.019 4.7959 132.172 4.85318 132.335 4.96705C132.497 5.08161 132.579 5.2339 132.579 5.42461V25.3875C132.579 25.8067 132.345 26.0162 131.876 26.0162H127.655C127.234 26.0162 127.023 25.8067 127.023 25.3875V5.42461Z" fill="white"></path>
  <path fill-rule="evenodd" clip-rule="evenodd" d="M134.545 25.6449C134.623 25.5017 134.701 25.3564 134.783 25.209C134.864 25.0616 134.957 24.9114 135.063 24.7584L141.523 15.1559C140.422 13.508 139.333 11.8789 138.256 10.2687C137.18 8.65924 136.091 7.03018 134.991 5.38156C134.933 5.30542 134.888 5.23417 134.854 5.1671C134.821 5.10074 134.799 5.02949 134.79 4.95264C134.809 4.8765 134.864 4.84087 134.955 4.84576C135.046 4.85065 135.139 4.829 135.235 4.78149H140.231C140.584 4.78149 140.862 4.96242 141.063 5.32428L144.58 10.5831L148.141 5.32428C148.342 4.96242 148.619 4.78149 148.974 4.78149H153.48H153.753C153.859 4.78149 153.957 4.78429 154.048 4.78848C154.139 4.79337 154.218 4.81014 154.285 4.83878C154.352 4.86742 154.386 4.91003 154.386 4.96731C154.386 5.08118 154.333 5.20552 154.227 5.33895L147.624 15.1559L154.357 25.1587C154.452 25.2921 154.527 25.4137 154.579 25.5233C154.631 25.633 154.653 25.7259 154.644 25.8021C154.644 25.9446 154.558 26.0158 154.386 26.0158H149.247C149.084 26.0158 148.935 25.969 148.801 25.8733C148.667 25.7783 148.562 25.6498 148.486 25.487L144.58 19.7287L140.719 25.487C140.642 25.6498 140.537 25.7783 140.403 25.8733C140.269 25.969 140.12 26.0158 139.958 26.0158H135.063H134.804C134.728 26.0158 134.66 25.9949 134.604 25.9522C134.545 25.9089 134.517 25.8496 134.517 25.7734C134.517 25.7259 134.526 25.6826 134.545 25.6449Z" fill="white"></path>
  <path fill-rule="evenodd" clip-rule="evenodd" d="M104.233 31.3878C104.297 31.4255 104.345 31.4744 104.375 31.5352C104.405 31.5946 104.4 31.6666 104.357 31.749L103.4 33.1028C103.358 33.1671 103.314 33.2034 103.267 33.2132C103.219 33.223 103.162 33.2062 103.094 33.165C102.908 33.0267 102.704 32.9191 102.481 32.8436C102.259 32.7689 102.023 32.7305 101.772 32.7305C101.463 32.7305 101.178 32.7891 100.917 32.9058C100.656 33.0225 100.432 33.1817 100.243 33.385C100.053 33.5883 99.9061 33.8251 99.8001 34.0962C99.6949 34.3665 99.6422 34.6564 99.6422 34.9645C99.6422 35.2733 99.6949 35.5625 99.8001 35.8307C99.9061 36.0997 100.053 36.3351 100.243 36.5363C100.432 36.7374 100.656 36.8967 100.917 37.0127C101.178 37.13 101.463 37.188 101.772 37.188C102.023 37.188 102.261 37.1496 102.487 37.0721C102.714 36.9952 102.92 36.8869 103.105 36.7479C103.173 36.706 103.23 36.6892 103.275 36.6969C103.32 36.7046 103.366 36.7381 103.412 36.7989L104.38 38.187C104.421 38.2694 104.428 38.3386 104.398 38.3951C104.367 38.4517 104.32 38.4985 104.255 38.5363C103.9 38.7731 103.518 38.9568 103.108 39.0867C102.698 39.216 102.266 39.2809 101.813 39.2809C101.413 39.2809 101.028 39.2299 100.659 39.1286C100.291 39.0273 99.9454 38.882 99.6254 38.6941C99.304 38.5062 99.012 38.2813 98.7496 38.02C98.4864 37.7588 98.2611 37.4688 98.0723 37.1517C97.8828 36.8331 97.7376 36.4909 97.6351 36.1241C97.5333 35.7574 97.4821 35.3745 97.4821 34.9764C97.4821 34.5775 97.5333 34.1947 97.6351 33.8286C97.7376 33.4612 97.8828 33.1175 98.0723 32.7961C98.2611 32.4741 98.4864 32.1814 98.7496 31.918C99.012 31.6554 99.304 31.4304 99.6254 31.2439C99.9454 31.0581 100.291 30.9128 100.659 30.8094C101.028 30.7067 101.413 30.655 101.813 30.655C102.266 30.655 102.694 30.7172 103.096 30.8436C103.499 30.9694 103.878 31.151 104.233 31.3878Z" fill="#F57DC3"></path>
  <path fill-rule="evenodd" clip-rule="evenodd" d="M107.413 35.5799C107.413 35.8279 107.451 36.0605 107.529 36.2764C107.606 36.4929 107.716 36.6802 107.857 36.838C107.999 36.9959 108.172 37.1209 108.374 37.2132C108.576 37.3054 108.802 37.3515 109.056 37.3515C109.301 37.3515 109.524 37.3054 109.722 37.2132C109.92 37.1209 110.089 36.9959 110.226 36.838C110.364 36.6802 110.47 36.4929 110.544 36.2764C110.617 36.0605 110.655 35.8279 110.655 35.5799C110.655 35.3396 110.617 35.1098 110.544 34.8911C110.47 34.6732 110.364 34.4818 110.226 34.3162C110.089 34.1506 109.92 34.02 109.722 33.9243C109.524 33.8286 109.301 33.7797 109.056 33.7797C108.802 33.7797 108.576 33.8286 108.374 33.9243C108.172 34.02 107.999 34.1506 107.857 34.3162C107.716 34.4818 107.606 34.6732 107.529 34.8911C107.451 35.1098 107.413 35.3396 107.413 35.5799ZM105.344 35.5799C105.344 35.2341 105.388 34.9009 105.477 34.5817C105.566 34.2617 105.691 33.9655 105.851 33.6924C106.011 33.4199 106.205 33.172 106.429 32.9484C106.654 32.7242 106.904 32.5335 107.18 32.3749C107.456 32.2177 107.753 32.0948 108.073 32.0088C108.392 31.9222 108.726 31.8789 109.073 31.8789C109.588 31.8789 110.069 31.9739 110.521 32.1639C110.972 32.3539 111.366 32.6152 111.7 32.9484C112.034 33.2809 112.299 33.6721 112.493 34.1213C112.689 34.5712 112.786 35.0574 112.786 35.5799C112.786 35.9257 112.741 36.2575 112.652 36.5754C112.564 36.8939 112.438 37.1894 112.279 37.4639C112.118 37.7385 111.925 37.9886 111.7 38.2121C111.475 38.4356 111.225 38.6278 110.949 38.7877C110.673 38.947 110.377 39.0699 110.062 39.1566C109.747 39.2439 109.416 39.2865 109.073 39.2865C108.726 39.2865 108.392 39.2439 108.073 39.1566C107.753 39.0699 107.456 38.947 107.18 38.7877C106.904 38.6278 106.654 38.4356 106.429 38.2121C106.205 37.9886 106.011 37.7385 105.851 37.4639C105.691 37.1894 105.566 36.8939 105.477 36.5754C105.388 36.2575 105.344 35.9257 105.344 35.5799Z" fill="#F57DC3"></path>
  <path fill-rule="evenodd" clip-rule="evenodd" d="M114.061 32.0925C114.11 32.0512 114.162 32.0247 114.216 32.0135C114.272 32.0023 114.323 31.9967 114.373 31.9967H115.228C115.296 31.9967 115.355 32.0093 115.404 32.0338C115.454 32.0582 115.495 32.0904 115.528 32.1316C115.563 32.1735 115.59 32.2196 115.611 32.2727C115.631 32.3251 115.651 32.3796 115.671 32.4354L115.79 32.9307C115.846 32.8148 115.938 32.6946 116.065 32.5703C116.19 32.4466 116.348 32.3342 116.535 32.2336C116.722 32.1323 116.938 32.0484 117.184 31.9828C117.43 31.9171 117.704 31.8843 118.005 31.8843C118.437 31.8843 118.821 31.9667 119.16 32.1316C119.497 32.2971 119.784 32.5221 120.022 32.8071C120.257 33.0921 120.436 33.4253 120.559 33.806C120.683 34.1875 120.743 34.594 120.743 35.0271V38.7225C120.743 38.8657 120.712 38.9733 120.65 39.0467C120.587 39.12 120.488 39.1571 120.352 39.1571H119.043C118.88 39.1571 118.769 39.1291 118.709 39.0746C118.649 39.0208 118.617 38.9146 118.617 38.7561V35.0837C118.617 34.9216 118.581 34.768 118.508 34.6234C118.433 34.4788 118.337 34.3509 118.215 34.2398C118.095 34.1288 117.957 34.0415 117.805 33.9779C117.651 33.9136 117.496 33.8815 117.337 33.8815C117.2 33.8815 117.062 33.9115 116.92 33.9716C116.779 34.0324 116.648 34.1155 116.529 34.2231C116.411 34.3307 116.31 34.4564 116.229 34.601C116.148 34.7456 116.101 34.9028 116.089 35.0718V38.7393C116.089 38.8029 116.078 38.8671 116.053 38.9314C116.028 38.995 115.992 39.0439 115.942 39.0774C115.894 39.1082 115.847 39.1284 115.804 39.1403C115.76 39.1508 115.71 39.1571 115.654 39.1571H114.373C114.21 39.1571 114.093 39.1172 114.021 39.0383C113.95 38.9594 113.913 38.8539 113.913 38.7225V32.4138C113.913 32.3418 113.929 32.2762 113.962 32.2168C113.994 32.156 114.038 32.1092 114.095 32.0757L114.061 32.0925Z" fill="#F57DC3"></path>
  <path fill-rule="evenodd" clip-rule="evenodd" d="M126.711 36.951C126.764 36.9132 126.815 36.8895 126.862 36.8804C126.909 36.8706 126.946 36.8664 126.972 36.8664C127.037 36.8664 127.095 36.8797 127.149 36.9055C127.201 36.9321 127.256 36.9887 127.312 37.0753L127.947 38.0281C127.965 38.0589 127.984 38.0924 128.001 38.1301C128.017 38.1672 128.027 38.1979 128.027 38.2202C128.027 38.3069 127.999 38.3774 127.944 38.4319C127.89 38.4864 127.83 38.5346 127.765 38.5758C127.457 38.7903 127.116 38.9621 126.749 39.0921C126.38 39.2213 125.989 39.2863 125.578 39.2863C125.238 39.2863 124.911 39.2436 124.595 39.157C124.279 39.0697 123.986 38.9468 123.714 38.7875C123.441 38.6275 123.192 38.4354 122.965 38.2119C122.739 37.9883 122.546 37.7389 122.388 37.4644C122.228 37.1899 122.104 36.8937 122.016 36.5751C121.927 36.258 121.883 35.9255 121.883 35.5797C121.883 35.2339 121.927 34.9007 122.016 34.5814C122.104 34.2615 122.228 33.9653 122.388 33.6928C122.546 33.4197 122.739 33.1717 122.965 32.9482C123.192 32.7246 123.441 32.5332 123.714 32.3753C123.986 32.2175 124.279 32.0945 124.595 32.0086C124.911 31.922 125.238 31.8787 125.578 31.8787C125.989 31.8787 126.371 31.9332 126.721 32.0421C127.07 32.1511 127.398 32.3132 127.704 32.5276L127.686 32.5109C127.769 32.5598 127.836 32.617 127.885 32.6827C127.934 32.7484 127.959 32.8301 127.959 32.9279C127.959 32.9957 127.936 33.0655 127.891 33.1368L127.386 33.9883C127.28 34.1735 127.151 34.265 127.001 34.265C126.967 34.265 126.925 34.2573 126.876 34.2398C126.826 34.2231 126.772 34.1937 126.711 34.1525C126.545 34.0435 126.367 33.9541 126.176 33.8842C125.986 33.8151 125.782 33.7795 125.567 33.7795C125.329 33.7795 125.11 33.8284 124.909 33.9241C124.709 34.0198 124.538 34.1504 124.396 34.316C124.255 34.4815 124.144 34.6736 124.065 34.8916C123.986 35.1095 123.946 35.3394 123.946 35.5797C123.946 35.8277 123.986 36.0603 124.065 36.2761C124.144 36.4927 124.255 36.6799 124.396 36.8378C124.538 36.9957 124.709 37.1207 124.909 37.2129C125.11 37.3058 125.329 37.3512 125.567 37.3512C125.782 37.3512 125.984 37.3135 126.173 37.2381C126.362 37.1633 126.542 37.0676 126.711 36.951Z" fill="#F57DC3"></path>
  <path fill-rule="evenodd" clip-rule="evenodd" d="M129.103 32.4094C129.103 32.3381 129.117 32.2759 129.143 32.2228C129.168 32.1705 129.205 32.1271 129.248 32.0929C129.291 32.0594 129.34 32.0342 129.395 32.0168C129.45 32 129.504 31.9916 129.557 31.9916H130.413C130.507 31.9916 130.583 32.0196 130.639 32.0761C130.696 32.1327 130.744 32.204 130.785 32.2913C130.824 32.3772 130.858 32.4729 130.889 32.5784C130.919 32.6839 130.955 32.7852 130.996 32.883C131.11 32.7593 131.222 32.6371 131.334 32.5169C131.444 32.3961 131.565 32.2892 131.694 32.1949C131.822 32.1006 131.962 32.0245 132.115 31.9665C132.268 31.9085 132.444 31.8792 132.64 31.8792C132.844 31.8792 133.026 31.8938 133.187 31.9239C133.348 31.9539 133.499 31.9986 133.643 32.0566C133.786 32.1153 133.929 32.1893 134.072 32.2794C134.213 32.3695 134.367 32.475 134.534 32.5959C134.695 32.6895 134.777 32.8006 134.777 32.9284C134.777 33.0108 134.744 33.1072 134.681 33.2162L134.165 34.0908C134.063 34.2368 133.936 34.3102 133.785 34.3102C133.71 34.3102 133.623 34.2899 133.529 34.2487C133.368 34.0908 133.202 33.9735 133.034 33.8959C132.866 33.8191 132.674 33.7799 132.459 33.7799C132.311 33.7799 132.182 33.8009 132.07 33.8421C131.958 33.8833 131.857 33.942 131.767 34.0175C131.677 34.0922 131.592 34.183 131.512 34.2878C131.433 34.3933 131.353 34.51 131.275 34.6378V38.7223C131.275 38.8655 131.239 38.9738 131.169 39.0471C131.099 39.1198 130.983 39.1568 130.821 39.1568H129.545C129.251 39.1568 129.103 39.0122 129.103 38.7223V32.4094Z" fill="#F57DC3"></path>
  <path fill-rule="evenodd" clip-rule="evenodd" d="M138.761 33.5997C138.614 33.5997 138.471 33.6291 138.333 33.687C138.196 33.7457 138.066 33.8233 137.945 33.9211C137.824 34.0189 137.716 34.1299 137.62 34.2543C137.522 34.3786 137.445 34.5044 137.384 34.6322H140.281C140.201 34.4848 140.115 34.35 140.022 34.2256C139.93 34.102 139.824 33.9923 139.704 33.8987C139.587 33.8051 139.45 33.7317 139.297 33.6787C139.144 33.6263 138.965 33.5997 138.761 33.5997ZM141.487 38.299C141.156 38.6042 140.781 38.8418 140.365 39.0129C139.949 39.1841 139.509 39.27 139.044 39.27C138.528 39.27 138.037 39.1757 137.577 38.9878C137.115 38.7991 136.711 38.5393 136.363 38.2061C136.016 37.8735 135.741 37.4817 135.537 37.0297C135.332 36.5784 135.231 36.088 135.231 35.5571C135.231 35.226 135.271 34.906 135.352 34.5952C135.433 34.285 135.548 33.9944 135.698 33.7241C135.847 33.4523 136.028 33.2036 136.243 32.9759C136.456 32.7482 136.694 32.554 136.959 32.3926C137.223 32.2305 137.511 32.1048 137.821 32.0147C138.13 31.9239 138.457 31.8792 138.801 31.8792C139.115 31.8792 139.419 31.9204 139.714 32.0028C140.008 32.0859 140.286 32.2019 140.544 32.3528C140.803 32.503 141.04 32.6839 141.255 32.8942C141.47 33.1051 141.656 33.335 141.811 33.5857C141.966 33.8351 142.085 34.1027 142.171 34.3863C142.255 34.6706 142.298 34.9633 142.298 35.2644C142.298 35.4593 142.295 35.6193 142.289 35.7436C142.284 35.868 142.255 35.9665 142.202 36.0398C142.149 36.1132 142.061 36.1642 141.938 36.1921C141.815 36.2207 141.634 36.234 141.397 36.234H137.317C137.354 36.475 137.43 36.6762 137.545 36.8383C137.661 36.9996 137.793 37.1289 137.945 37.2246C138.097 37.3203 138.257 37.3887 138.427 37.4307C138.597 37.4719 138.757 37.4921 138.909 37.4921C139.044 37.4921 139.185 37.4789 139.328 37.4502C139.472 37.4223 139.61 37.3839 139.745 37.337C139.879 37.2902 140.001 37.2358 140.113 37.1736C140.224 37.1114 140.314 37.0471 140.382 36.9787C140.443 36.9305 140.495 36.8935 140.538 36.869C140.582 36.8446 140.628 36.832 140.677 36.832C140.726 36.832 140.776 36.8495 140.827 36.883C140.878 36.9172 140.936 36.9661 141.001 37.0297L141.601 37.7073C141.643 37.7562 141.669 37.8002 141.68 37.8393C141.691 37.8791 141.698 37.919 141.698 37.9602C141.698 38.0363 141.676 38.1006 141.634 38.1558C141.593 38.2103 141.545 38.2578 141.487 38.299Z" fill="#F57DC3"></path>
  <path fill-rule="evenodd" clip-rule="evenodd" d="M143.478 30.8748C143.478 30.7582 143.516 30.6708 143.594 30.6122C143.671 30.5542 143.781 30.499 143.925 30.4459L145.212 30.0002C145.231 29.9967 145.248 29.9946 145.266 29.9946H145.314C145.453 29.9946 145.547 30.0351 145.594 30.1162C145.641 30.1972 145.665 30.3034 145.665 30.4347L145.659 31.9862H146.436C146.557 31.9862 146.655 32.0219 146.731 32.0931C146.806 32.1651 146.845 32.272 146.845 32.4152V33.5035C146.845 33.6614 146.806 33.7774 146.731 33.8507C146.655 33.9241 146.557 33.9604 146.436 33.9604H145.659L145.665 38.7225C145.665 38.8657 145.624 38.9733 145.54 39.0467C145.457 39.12 145.342 39.157 145.195 39.157H143.914C143.622 39.157 143.478 39.0124 143.478 38.7225L143.472 33.9604H142.888C142.597 33.9604 142.451 33.8081 142.451 33.5035V32.4152C142.451 32.1287 142.597 31.9862 142.888 31.9862H143.472L143.478 30.8748Z" fill="#F57DC3"></path>
  <path fill-rule="evenodd" clip-rule="evenodd" d="M150.998 33.5997C150.851 33.5997 150.708 33.6291 150.57 33.687C150.432 33.7457 150.303 33.8233 150.182 33.9211C150.061 34.0189 149.952 34.1299 149.856 34.2543C149.759 34.3786 149.681 34.5044 149.621 34.6322H152.517C152.438 34.4848 152.351 34.35 152.259 34.2256C152.167 34.102 152.061 33.9923 151.941 33.8987C151.823 33.8051 151.687 33.7317 151.534 33.6787C151.381 33.6263 151.202 33.5997 150.998 33.5997ZM153.725 38.299C153.393 38.6042 153.018 38.8418 152.602 39.0129C152.186 39.1841 151.746 39.27 151.282 39.27C150.764 39.27 150.275 39.1757 149.813 38.9878C149.352 38.7991 148.947 38.5393 148.6 38.2061C148.253 37.8735 147.978 37.4817 147.773 37.0297C147.569 36.5784 147.467 36.088 147.467 35.5571C147.467 35.226 147.507 34.906 147.589 34.5952C147.67 34.285 147.785 33.9944 147.935 33.7241C148.084 33.4523 148.265 33.2036 148.479 32.9759C148.693 32.7482 148.931 32.554 149.196 32.3926C149.46 32.2305 149.748 32.1048 150.058 32.0147C150.367 31.9239 150.694 31.8792 151.037 31.8792C151.352 31.8792 151.656 31.9204 151.95 32.0028C152.245 32.0859 152.522 32.2019 152.781 32.3528C153.04 32.503 153.277 32.6839 153.492 32.8942C153.707 33.1051 153.893 33.335 154.048 33.5857C154.202 33.8351 154.322 34.1027 154.407 34.3863C154.492 34.6706 154.535 34.9633 154.535 35.2644C154.535 35.4593 154.532 35.6193 154.526 35.7436C154.52 35.868 154.492 35.9665 154.439 36.0398C154.386 36.1132 154.299 36.1642 154.175 36.1921C154.053 36.2207 153.871 36.234 153.634 36.234H149.554C149.591 36.475 149.667 36.6762 149.782 36.8383C149.898 36.9996 150.03 37.1289 150.182 37.2246C150.334 37.3203 150.494 37.3887 150.665 37.4307C150.833 37.4719 150.994 37.4921 151.145 37.4921C151.282 37.4921 151.422 37.4789 151.565 37.4502C151.709 37.4223 151.847 37.3839 151.982 37.337C152.116 37.2902 152.238 37.2358 152.35 37.1736C152.461 37.1114 152.551 37.0471 152.619 36.9787C152.68 36.9305 152.732 36.8935 152.775 36.869C152.819 36.8446 152.865 36.832 152.914 36.832C152.963 36.832 153.013 36.8495 153.064 36.883C153.115 36.9172 153.173 36.9661 153.237 37.0297L153.838 37.7073C153.88 37.7562 153.906 37.8002 153.917 37.8393C153.929 37.8791 153.934 37.919 153.934 37.9602C153.934 38.0363 153.913 38.1006 153.871 38.1558C153.83 38.2103 153.781 38.2578 153.725 38.299Z" fill="#F57DC3"></path>
  <mask id="mask0_140_5833" style="mask-type:luminance" maskUnits="userSpaceOnUse" x="158" y="0" width="43" height="42">
    <path fill-rule="evenodd" clip-rule="evenodd" d="M158.958 0.639648H200.147V41.6396H158.958V0.639648Z" fill="white"></path>
  </mask>
  <g mask="url(#mask0_140_5833)">
    <path fill-rule="evenodd" clip-rule="evenodd" d="M193.704 21.2983L186.553 26.0115C186.203 26.2421 185.739 26.2456 185.385 26.0192L178.335 21.5058C177.739 21.1244 177.731 20.2966 178.319 19.9033L185.215 15.2892C185.558 15.0601 186.013 15.0503 186.366 15.2634L193.67 19.6776C194.289 20.0514 194.307 20.9008 193.704 21.2983ZM183.514 28.0339L176.227 32.5368C175.871 32.7576 175.407 32.7471 175.06 32.511L168.146 27.7936C167.562 27.3954 167.578 26.5676 168.177 26.1918L175.206 21.7803C175.555 21.5617 176.011 21.5645 176.357 21.788L183.529 26.4132C184.137 26.8051 184.129 27.6539 183.514 28.0339ZM168.362 13.5645L175.207 8.8743C175.547 8.64168 176.001 8.62631 176.357 8.83588L183.711 13.1691C184.334 13.5358 184.36 14.3846 183.762 14.7891L176.664 19.5812C176.316 19.8159 175.852 19.8236 175.496 19.6015L168.397 15.1663C167.796 14.7919 167.779 13.9641 168.362 13.5645ZM200.135 20.416C199.732 9.10134 190.193 0.252598 178.826 0.652177C167.459 1.05176 158.57 10.5481 158.971 21.8627C159.373 33.1774 168.913 42.0262 180.28 41.6266C191.646 41.227 200.535 31.7307 200.135 20.416Z" fill="#F57DC3"></path>
  </g>
</svg>
