<svg xmlns="http://www.w3.org/2000/svg" width="24" height="24" viewBox="0 0 24 24" class="svg replaced-svg">
    <path fill="#8B8D8E" fill-rule="evenodd" d="M5.7 8.4h4.2c.166 0 .3-.134.3-.3v-.6c0-.166-.134-.3-.3-.3H5.7c-.166 0-.3.134-.3.3v.6c0 .166.134.3.3.3zm.19 9.285l.425.424c.117.117.307.117.424 0L7.8 17.05l1.06 1.06c.118.117.308.117.425 0l.424-.424c.117-.117.117-.307 0-.424L8.65 16.2l1.06-1.06c.117-.118.117-.308 0-.425l-.424-.424c-.117-.117-.307-.117-.424 0L7.8 15.35l-1.06-1.06c-.118-.117-.308-.117-.425 0l-.424.424c-.117.117-.117.307 0 .424L6.95 16.2l-1.06 1.06c-.118.118-.117.308 0 .425zM19.8 3H4.2C3.537 3 3 3.537 3 4.2v15.6c0 .663.537 1.2 1.2 1.2h15.6c.663 0 1.2-.537 1.2-1.2V4.2c0-.663-.537-1.2-1.2-1.2zm-8.4 16.8H4.2v-7.2h7.2v7.2zm0-8.4H4.2V4.2h7.2v7.2zm8.4 8.4h-7.2v-7.2h7.2v7.2zm0-8.4h-7.2V4.2h7.2v7.2zm-5.7-3h1.5v1.5c0 .166.134.3.3.3h.6c.166 0 .3-.134.3-.3V8.4h1.5c.166 0 .3-.134.3-.3v-.6c0-.166-.134-.3-.3-.3h-1.5V5.7c0-.166-.134-.3-.3-.3h-.6c-.166 0-.3.134-.3.3v1.5h-1.5c-.166 0-.3.134-.3.3v.6c0 .166.134.3.3.3zm0 9.6h4.2c.166 0 .3-.134.3-.3v-.6c0-.166-.134-.3-.3-.3h-4.2c-.166 0-.3.134-.3.3v.6c0 .166.134.3.3.3zm0-2.4h4.2c.166 0 .3-.134.3-.3v-.6c0-.166-.134-.3-.3-.3h-4.2c-.166 0-.3.134-.3.3v.6c0 .166.134.3.3.3z"></path>
</svg>