<svg width="14" height="30" viewBox="0 0 14 30" xmlns="http://www.w3.org/2000/svg">
    <path d="M6.376 29.825a.934.934 0 0 0 .497-.578c2.628-3.354 4.993-6.6 7.019-10.367.517-.963-.958-1.777-1.51-.825-1.494 2.57-3.136 4.869-4.923 7.132.106-3.897-.097-7.814-.367-11.695-.171-2.451-.397-4.901-.665-7.345-.204-1.867-.21-4.02-.82-5.806-.177-.518-.931-.422-.961.127-.11 1.993.36 4.15.496 6.147.162 2.377.272 4.756.36 7.136.143 3.817.248 7.657.046 11.476-1.128-2.877-2.365-5.64-3.952-8.411-.547-.956-1.999-.101-1.49.86 2.002 3.778 3.35 7.509 4.657 11.556.135.415.441.637.782.708.271.1.57.084.83-.115z" fill="#F5AFCD" fill-rule="nonzero"/>
</svg>
