<svg xmlns="http://www.w3.org/2000/svg" width="30" height="31" viewBox="0 0 30 31">
    <g fill="none" fill-rule="evenodd">
        <path d="M0 0H30V30H0z" transform="translate(0 .738)"/>
        <path fill="#374255" d="M19.246 8.831l-.331.332c-.22.22-.22.576 0 .795l3.934 3.912H5.229c-.31 0-.562.252-.562.562v.47c0 .31.252.562.562.562h17.62l-3.934 3.911c-.22.22-.22.576 0 .796l.331.33c.22.22.576.22.796 0l5.46-5.437c.22-.22.22-.575 0-.795l-5.46-5.438c-.22-.22-.576-.22-.796 0z" transform="translate(0 .738)"/>
    </g>
</svg>
