<?xml version="1.0" encoding="UTF-8"?>
<svg width="20px" height="20px" viewBox="0 0 20 20" version="1.1" xmlns="http://www.w3.org/2000/svg" xmlns:xlink="http://www.w3.org/1999/xlink">
    <!-- Generator: Sketch 63.1 (92452) - https://sketch.com -->
    <title>Shape@3x</title>
    <desc>Created with Sketch.</desc>
    <g id="Symbols" stroke="none" stroke-width="1" fill="none" fill-rule="evenodd">
        <g id="DT/comp/lister/installers" transform="translate(-327.000000, -169.000000)" fill="#4a4e4b">
            <g id="Group-2" transform="translate(150.000000, 138.000000)">
                <path d="M184.938802,31.0007748 C184.597607,31.0347906 184.338058,31.3219334 184.338541,31.6648373 L184.338541,36.3302019 L183.003906,36.3302019 C182.452031,36.3276822 182.13536,36.9571165 182.467448,37.3979099 L186.46875,42.7325452 C186.735411,43.0891566 187.269797,43.0891566 187.536458,42.7325452 L191.53776,37.3979099 C191.869848,36.9571165 191.553165,36.3269767 191.001302,36.3302019 L189.667969,36.3302019 L189.667969,31.6648373 C189.66667,31.2984499 189.370287,31.0020599 189.003906,31.0007748 L185.002604,31.0007748 C184.981287,30.9997417 184.960115,30.9997417 184.938802,31.0007748 Z M179.003906,44.3328059 C177.907458,44.3328059 177,45.2337605 177,46.3302019 L177,48.9981705 C177,50.0946112 177.907458,51.0007745 179.003906,51.0007745 L195.002604,51.0007745 C196.099052,51.0007745 197,50.0946112 197,48.9981705 L197,46.3302019 C197,45.2337605 196.099052,44.3328059 195.002604,44.3328059 L179.003906,44.3328059 Z M180.335937,46.9981705 C180.512748,46.9981705 180.682318,47.0684084 180.807342,47.1934327 C180.932366,47.3184569 181.002604,47.4880262 181.002604,47.6648372 C181.002604,47.8416482 180.932366,48.0112175 180.807342,48.1362417 C180.682318,48.261266 180.512748,48.3315039 180.335937,48.3315039 C180.159126,48.3315039 179.989557,48.261266 179.864533,48.1362417 C179.739509,48.0112175 179.669271,47.8416482 179.669271,47.6648372 C179.669271,47.4880262 179.739509,47.3184569 179.864533,47.1934327 C179.989557,47.0684084 180.159126,46.9981705 180.335937,46.9981705 Z M183.002604,46.9981705 C183.179415,46.9981705 183.348984,47.0684084 183.474009,47.1934327 C183.599033,47.3184569 183.669271,47.4880262 183.669271,47.6648372 C183.669271,47.8416482 183.599033,48.0112175 183.474009,48.1362417 C183.348984,48.261266 183.179415,48.3315039 183.002604,48.3315039 C182.825793,48.3315039 182.656224,48.261266 182.5312,48.1362417 C182.406175,48.0112175 182.335937,47.8416482 182.335937,47.6648372 C182.335937,47.4880262 182.406175,47.3184569 182.5312,47.1934327 C182.656224,47.0684084 182.825793,46.9981705 183.002604,46.9981705 Z M189.604167,46.9994725 C189.625422,46.9984544 189.646714,46.9984544 189.667969,46.9994725 L193.667969,46.9994725 C194.03055,47.0073017 194.320395,47.3034732 194.320395,47.6661392 C194.320395,48.0288052 194.03055,48.3249767 193.667969,48.3328059 L189.667969,48.3328059 C189.305076,48.3422298 189.001163,48.0599507 188.983812,47.6973506 C188.966461,47.3347505 189.242032,47.0247422 189.604167,46.9994725 L189.604167,46.9994725 Z" id="Shape"></path>
            </g>
        </g>
    </g>
</svg>