<?xml version="1.0" encoding="utf-8"?>
<!-- Generator: Adobe Illustrator 19.0.0, SVG Export Plug-In . SVG Version: 6.00 Build 0)  -->
<svg version="1.1" id="Layer_1" xmlns="http://www.w3.org/2000/svg" xmlns:xlink="http://www.w3.org/1999/xlink" x="0px" y="0px"
	 width="22px" height="22px" viewBox="0 0 22 22" style="enable-background:new 0 0 22 22;" xml:space="preserve">
<style type="text/css">
	.st0{fill:#FFFFFF;}
</style>
<g>
	<path id="XMLID_55_" class="st0" d="M0,7.3V1.2C0,0.5,0.5,0,1.2,0h6.1c0.3,0,0.6,0.3,0.6,0.6V1c0,0.3-0.3,0.6-0.6,0.6H1.6v5.7
		c0,0.3-0.3,0.6-0.6,0.6H0.6C0.3,7.9,0,7.6,0,7.3L0,7.3z M14.7,0h6.1C21.5,0,22,0.5,22,1.2v6.1c0,0.3-0.3,0.6-0.6,0.6H21
		c-0.3,0-0.6-0.3-0.6-0.6V1.6h-5.7c-0.3,0-0.6-0.3-0.6-0.6V0.6C14.1,0.3,14.4,0,14.7,0L14.7,0z M22,14.7v6.1c0,0.7-0.5,1.2-1.2,1.2
		h-6.1c-0.3,0-0.6-0.3-0.6-0.6V21c0-0.3,0.3-0.6,0.6-0.6h5.7v-5.7c0-0.3,0.3-0.6,0.6-0.6h0.4C21.7,14.1,22,14.4,22,14.7z M7.3,22
		H1.2C0.5,22,0,21.5,0,20.8v-6.1c0-0.3,0.3-0.6,0.6-0.6H1c0.3,0,0.6,0.3,0.6,0.6v5.7h5.7c0.3,0,0.6,0.3,0.6,0.6v0.4
		C7.9,21.7,7.6,22,7.3,22z"/>
</g>
</svg>
