<svg width="20" height="21" viewBox="0 0 20 21" xmlns="http://www.w3.org/2000/svg">
    <g fill="none" fill-rule="evenodd">
        <path d="M13.672 6.81c-.24.017-.468.114-.647.276L9.103 10.55 7.757 9.008A1.067 1.067 0 1 0 6.15 10.4L8.2 12.763c.385.445 1.059.493 1.505.107l4.73-4.186a1.067 1.067 0 0 0-.762-1.873z" fill="#E73682"/>
        <path d="M0 10.002c0 5.511 4.485 10.005 9.996 10.005 5.51 0 10.004-4.494 10.004-10.005C20 4.492 15.507 0 9.996 0 4.486 0 0 4.492 0 10.002zm2.112 0A7.87 7.87 0 0 1 9.996 2.11a7.88 7.88 0 0 1 7.895 7.893 7.882 7.882 0 0 1-7.895 7.896 7.873 7.873 0 0 1-7.884-7.896z" fill="#F186B4"/>
    </g>
</svg>
