<?xml version="1.0" encoding="utf-8"?>
<!-- Generator: Adobe Illustrator 19.0.0, SVG Export Plug-In . SVG Version: 6.00 Build 0)  -->
<svg version="1.1" id="Layer_1" xmlns="http://www.w3.org/2000/svg" xmlns:xlink="http://www.w3.org/1999/xlink" x="0px" y="0px"
	 width="12px" height="12px" viewBox="-299 391 12 12" style="enable-background:new -299 391 12 12;" xml:space="preserve">
<style type="text/css">
	.st0{fill:#FFFFFF;}
</style>
<path class="st0" d="M-293,392.2c2.6,0,4.8,2.1,4.8,4.8c0,2.6-2.1,4.8-4.8,4.8c-2.6,0-4.8-2.1-4.8-4.8
	C-297.8,394.4-295.6,392.2-293,392.2z M-293,391.5c-3,0-5.5,2.5-5.5,5.5c0,3,2.5,5.5,5.5,5.5s5.5-2.5,5.5-5.5
	C-287.5,394-290,391.5-293,391.5z M-293.3,394.2h0.5c0.2,0,0.3,0.1,0.3,0.3l-0.2,3.7c0,0.1-0.1,0.3-0.3,0.3h-0.2
	c-0.1,0-0.3-0.1-0.3-0.3l-0.2-3.7C-293.5,394.3-293.4,394.2-293.3,394.2L-293.3,394.2z M-293,398.9c-0.3,0-0.6,0.3-0.6,0.6
	c0,0.3,0.3,0.6,0.6,0.6s0.6-0.3,0.6-0.6C-292.4,399.1-292.7,398.9-293,398.9z"/>
</svg>
