<svg width="17" height="16" viewBox="0 0 17 16" xmlns="http://www.w3.org/2000/svg">
    <path d="M8.343 3c-1.654 0-3 1.346-3 3s1.346 3 3 3c1.655 0 3-1.346 3-3s-1.345-3-3-3zm0 5c-1.102 0-2-.897-2-2s.898-2 2-2c1.103 0 2 .897 2 2s-.897 2-2 2zm0-8a6 6 0 0 0-6 6c0 2.42.843 3.095 5.384 9.677a.75.75 0 0 0 1.233 0C13.5 9.095 14.343 8.42 14.343 6a6 6 0 0 0-6-6zm0 14.81c-4.353-6.295-5-6.795-5-8.81 0-1.336.52-2.591 1.465-3.536A4.967 4.967 0 0 1 8.343 1c1.336 0 2.592.52 3.536 1.464A4.967 4.967 0 0 1 13.343 6c0 2.015-.646 2.515-5 8.81z" fill="#F186B4" fill-rule="evenodd"/>
</svg>
