<svg width="109" height="44" viewBox="0 0 109 44" xmlns="http://www.w3.org/2000/svg" xmlns:xlink="http://www.w3.org/1999/xlink">
    <defs>
        <path id="xxcsjcqe5a" d="M0 0h109v44H0z"/>
    </defs>
    <g fill="none" fill-rule="evenodd">
        <mask id="tf9oc26dkb" fill="#fff">
            <use xlink:href="#xxcsjcqe5a"/>
        </mask>
        <path d="M107.806 9.076c-6.652 1.338-13.807.834-20.419-.555-6.013-1.265-13.26-3.239-17.44-8.12-.895-1.045-2.546.155-1.726 1.283 3.98 5.466 11.302 7.693 17.682 8.974 5.001 1.004 10.222 1.604 15.377 1.396-3.538 2.066-6.899 4.547-10.496 6.496-5.286 2.862-10.718 5.47-16.286 7.743-11.18 4.56-23.025 8.291-35.123 9.27-10.059.816-21.901-.017-29.471-7.565-2.997-2.985-4.86-6.342-6.016-9.918-.885-1.856-1.705-3.734-2.395-5.308C-.328 8.614-.19 10.949.376 14.682c1.142 5.304 3.341 10.253 6.828 13.992 7.256 7.78 17.979 10.023 28.276 9.697 13.125-.417 26.145-4.068 38.281-8.91 6.164-2.457 12.21-5.23 18.031-8.418 2.967-1.625 6.245-3.267 9.19-5.24-3.036 3.578-5.798 7.4-8.646 11.133-4.853 6.365-9.85 11.635-16.19 16.497-.093.072-.578.705.22.54 6.395-1.319 11.565-7.995 15.348-12.796 5.407-6.852 10.27-14.345 16.892-20.122.762-.668.377-2.215-.8-1.98" fill="#F5AFCD" mask="url(#tf9oc26dkb)"/>
    </g>
</svg>
