<svg xmlns="http://www.w3.org/2000/svg" width="105" height="105" viewBox="0 0 105 105">
    <path fill="#FAFAFA" fill-rule="evenodd" d="M52.5 105c29.002 0 52.5-23.498 52.5-52.5S81.502 0 52.5 0 0 23.498 0 52.5 23.498 105 52.5 105zM4.375 52.5c0-26.446 21.411-48.125 48.125-48.125 26.446 0 48.125 21.411 48.125 48.125 0 26.446-21.411 48.125-48.125 48.125-26.446 0-48.125-21.411-48.125-48.125zm67.552-.58L44.864 35.469c-2.429-1.353-5.489.384-5.489 3.229V70.68c0 2.83 3.045 4.582 5.49 3.23l27.062-15.531c2.522-1.4 2.522-5.044 0-6.458z"/>
</svg>
