<svg width="16" height="16" viewBox="0 0 16 16" xmlns="http://www.w3.org/2000/svg">
    <path d="M14.641 1.384 11.76.718a.896.896 0 0 0-1.024.518l-1.33 3.102a.897.897 0 0 0 .255 1.043l1.541 1.261a10.006 10.006 0 0 1-4.563 4.563L5.38 9.664a.897.897 0 0 0-1.044-.255l-3.1 1.33a.892.892 0 0 0-.517 1.02l.663 2.88a.893.893 0 0 0 .872.694c7.21 0 13.08-5.838 13.08-13.08a.888.888 0 0 0-.692-.869zM2.271 14.418l-.658-2.847 3.07-1.315 1.702 2.081c2.962-1.39 4.565-2.999 5.95-5.95l-2.082-1.7 1.315-3.071 2.848.657C14.41 8.978 8.975 14.41 2.27 14.418z" fill="#F186B4" fill-rule="evenodd"/>
</svg>
