<svg width="42" height="43" viewBox="0 0 42 43" xmlns="http://www.w3.org/2000/svg">
    <path d="M21 25.907a1.383 1.383 0 1 0 0 2.766 1.383 1.383 0 0 0 0-2.766zm.379-1.186h-.79a.593.593 0 0 1-.593-.593v-.018c0-3.475 3.825-3.143 3.825-5.306 0-.989-.877-1.986-2.837-1.986-1.44 0-2.187.476-2.925 1.417a.591.591 0 0 1-.803.117l-.648-.452a.592.592 0 0 1-.131-.848c1.048-1.345 2.292-2.21 4.507-2.21 2.584 0 4.813 1.47 4.813 3.962 0 3.33-3.825 3.154-3.825 5.306v.018a.593.593 0 0 1-.593.593zM21 11.088c5.86 0 10.67 4.746 10.67 10.67 0 5.892-4.773 10.669-10.67 10.669-5.89 0-10.67-4.77-10.67-10.67 0-5.888 4.772-10.669 10.67-10.669zm0-1.58c-6.765 0-12.25 5.486-12.25 12.25 0 6.766 5.485 12.25 12.25 12.25s12.25-5.484 12.25-12.25c0-6.764-5.485-12.25-12.25-12.25z" fill="#FFF" fill-rule="evenodd"/>
</svg>
