<svg width="20" height="20" viewBox="0 0 20 20" fill="none" xmlns="http://www.w3.org/2000/svg">
<path d="M12.7502 12.75V7.25005M12.7502 7.25005H7.25017M12.7502 7.25005L7.25017 12.7499M6.15 18.25H13.85C15.3901 18.25 16.1602 18.25 16.7485 17.9503C17.2659 17.6866 17.6866 17.2659 17.9503 16.7485C18.25 16.1602 18.25 15.3901 18.25 13.85V6.15C18.25 4.60986 18.25 3.83978 17.9503 3.25153C17.6866 2.73408 17.2659 2.31338 16.7485 2.04973C16.1602 1.75 15.3901 1.75 13.85 1.75H6.15C4.60986 1.75 3.83978 1.75 3.25153 2.04973C2.73408 2.31338 2.31338 2.73408 2.04973 3.25153C1.75 3.83978 1.75 4.60986 1.75 6.15V13.85C1.75 15.3901 1.75 16.1602 2.04973 16.7485C2.31338 17.2659 2.73408 17.6866 3.25153 17.9503C3.83978 18.25 4.60986 18.25 6.15 18.25Z" stroke="#F57DC3" stroke-width="2" stroke-linecap="round" stroke-linejoin="round"/>
</svg>
