<svg width="16" height="16" viewBox="0 0 16 16" xmlns="http://www.w3.org/2000/svg">
    <path d="M8 .667A7.332 7.332 0 0 0 .667 8 7.332 7.332 0 0 0 8 15.333 7.332 7.332 0 0 0 15.333 8 7.332 7.332 0 0 0 8 .667zm5.713 4.494h-2.44c-.266-1.313-.712-2.43-1.277-3.226a6.415 6.415 0 0 1 3.717 3.226zM10.603 8c0 .677-.048 1.307-.128 1.892h-4.95A13.976 13.976 0 0 1 5.398 8c0-.677.047-1.307.127-1.892h4.95c.08.585.127 1.215.127 1.892zM8 1.613c.795 0 1.816 1.304 2.31 3.548H5.69C6.185 2.917 7.206 1.613 8 1.613zm-1.996.322c-.562.793-1.011 1.91-1.277 3.226h-2.44a6.415 6.415 0 0 1 3.717-3.226zM1.613 8c0-.66.1-1.295.287-1.892h2.676a14.463 14.463 0 0 0 0 3.785H1.9A6.347 6.347 0 0 1 1.613 8zm.674 2.839h2.44c.266 1.313.712 2.43 1.277 3.226a6.415 6.415 0 0 1-3.717-3.226zM8 14.387c-.795 0-1.816-1.304-2.31-3.548h4.62c-.494 2.244-1.515 3.548-2.31 3.548zm1.996-.322c.562-.793 1.011-1.91 1.277-3.226h2.44a6.415 6.415 0 0 1-3.717 3.226zm1.428-4.173a14.463 14.463 0 0 0 0-3.785H14.1c.187.598.287 1.234.287 1.893 0 .66-.1 1.295-.287 1.892h-2.676z" fill="#F186B4" fill-rule="evenodd"/>
</svg>
