<svg width="24" height="24" viewBox="0 0 24 24" xmlns="http://www.w3.org/2000/svg">
    <path d="M12 14.371a.79.79 0 1 0 0 1.58.79.79 0 0 0 0-1.58zm.216-.677h-.451a.339.339 0 0 1-.339-.34v-.01c0-1.985 2.186-1.796 2.186-3.032 0-.565-.501-1.135-1.621-1.135-.823 0-1.25.273-1.672.81a.338.338 0 0 1-.458.067l-.37-.258a.338.338 0 0 1-.076-.485c.6-.768 1.31-1.263 2.576-1.263 1.476 0 2.75.84 2.75 2.264 0 1.903-2.186 1.803-2.186 3.032v.01a.339.339 0 0 1-.339.34zM12 5.904a6.097 6.097 0 1 1-.001 12.194A6.097 6.097 0 0 1 12 5.903zM12 5a7.001 7.001 0 1 0 .002 14.002A7.001 7.001 0 0 0 12 5z" fill="#8B8D8E" fill-rule="evenodd"/>
</svg>
