<svg xmlns="http://www.w3.org/2000/svg" width="12" height="12" viewBox="0 0 12 12">
    <path fill="#9B2E29" fill-rule="evenodd" d="M6 1.21c2.63 0 4.79 2.13 4.79 4.79 0 2.646-2.142 4.79-4.79 4.79-2.645 0-4.79-2.141-4.79-4.79 0-2.644 2.142-4.79 4.79-4.79zM6 .5C2.963.5.5 2.964.5 6c0 3.038 2.463 5.5 5.5 5.5s5.5-2.462 5.5-5.5C11.5 2.964 9.037.5 6 .5zm-.255 2.661h.51c.151 0 .272.126.266.278l-.156 3.725c-.005.143-.123.255-.265.255h-.2c-.142 0-.26-.112-.265-.255L5.479 3.44c-.006-.152.115-.278.266-.278zM6 7.863c-.343 0-.621.278-.621.62 0 .344.278.622.621.622.343 0 .621-.278.621-.621 0-.343-.278-.621-.621-.621z"/>
</svg>
