<?xml version="1.0" encoding="UTF-8"?>
<svg xmlns="http://www.w3.org/2000/svg" width="23" height="22" viewBox="0 0 23 22" fill="none">
  <path fill-rule="evenodd" clip-rule="evenodd" d="M11.1143 4.125C8.83971 4.125 6.98926 5.97545 6.98926 8.25C6.98926 10.5246 8.83971 12.375 11.1143 12.375C13.3888 12.375 15.2393 10.5246 15.2393 8.25C15.2393 5.97545 13.3888 4.125 11.1143 4.125ZM11.1143 11C9.59789 11 8.36426 9.76637 8.36426 8.25C8.36426 6.73363 9.59789 5.5 11.1143 5.5C12.6306 5.5 13.8643 6.73363 13.8643 8.25C13.8643 9.76637 12.6306 11 11.1143 11ZM11.1143 0C6.55789 0 2.86426 3.69364 2.86426 8.25C2.86426 11.5763 4.02313 12.5052 10.2664 21.5561C10.6761 22.1479 11.5524 22.148 11.9622 21.5561C18.2054 12.5052 19.3643 11.5763 19.3643 8.25C19.3643 3.69364 15.6706 0 11.1143 0ZM11.1143 20.3642C5.12893 11.7085 4.23926 11.0212 4.23926 8.25C4.23926 6.4136 4.95439 4.68716 6.2529 3.38864C7.55142 2.09013 9.27786 1.375 11.1143 1.375C12.9507 1.375 14.6771 2.09013 15.9756 3.38864C17.2741 4.68716 17.9893 6.4136 17.9893 8.25C17.9893 11.0211 17.1001 11.7077 11.1143 20.3642Z" fill="#1D221E"></path>
</svg>
