<?xml version="1.0" encoding="UTF-8"?>
<svg xmlns="http://www.w3.org/2000/svg" width="23" height="22" viewBox="0 0 23 22" fill="none">
  <path fill-rule="evenodd" clip-rule="evenodd" d="M19.3073 3.66663H2.92188C1.87809 3.66663 1.03125 4.51347 1.03125 5.55725V16.901C1.03125 17.9448 1.87809 18.7916 2.92188 18.7916H19.3073C20.3511 18.7916 21.1979 17.9448 21.1979 16.901V5.55725C21.1979 4.51347 20.3511 3.66663 19.3073 3.66663ZM2.92187 4.92704H19.3073C19.6539 4.92704 19.9375 5.21064 19.9375 5.55725V7.18791C19.0749 7.91659 17.8421 8.92099 14.0057 11.9657C13.34 12.4935 12.0284 13.7657 11.1146 13.75C10.2008 13.7657 8.88522 12.4935 8.2235 11.9657C4.38711 8.92099 3.15426 7.91659 2.29167 7.18791V5.55725C2.29167 5.21064 2.57526 4.92704 2.92187 4.92704ZM19.3073 17.5312H2.92187C2.57526 17.5312 2.29167 17.2476 2.29167 16.901V8.82646C3.18971 9.56301 4.60768 10.7013 7.43968 12.9504C8.24713 13.5963 9.67298 15.0183 11.1146 15.0104C12.5483 15.0222 13.9623 13.6121 14.7895 12.9504C17.6215 10.7013 19.0395 9.56301 19.9375 8.82646V16.901C19.9375 17.2476 19.6539 17.5312 19.3073 17.5312Z" fill="#1D221E"></path>
</svg>
