<svg width="32" height="31" viewBox="0 0 32 31" fill="none" xmlns="http://www.w3.org/2000/svg">
<mask id="mask0_204_6928" style="mask-type:luminance" maskUnits="userSpaceOnUse" x="0" y="0" width="32" height="31">
<path fill-rule="evenodd" clip-rule="evenodd" d="M0 0H31.1431V31H0V0Z" fill="white"/>
</mask>
<g mask="url(#mask0_204_6928)">
<path fill-rule="evenodd" clip-rule="evenodd" d="M26.2715 15.6199L20.8644 19.1835C20.5996 19.3578 20.2489 19.3605 19.9815 19.1893L14.6508 15.7767C14.2003 15.4884 14.194 14.8625 14.6386 14.5651L19.853 11.0764C20.1125 10.9032 20.4564 10.8958 20.7233 11.0569L26.246 14.3945C26.714 14.6771 26.7273 15.3193 26.2715 15.6199ZM18.5668 20.7128L13.0574 24.1175C12.7878 24.2844 12.4371 24.2764 12.175 24.0979L6.94674 20.5311C6.50526 20.23 6.51746 19.6041 6.97061 19.32L12.2853 15.9845C12.5491 15.8192 12.8934 15.8213 13.1556 15.9903L18.578 19.4874C19.0375 19.7837 19.0317 20.4255 18.5668 20.7128ZM7.11076 9.77248L12.2859 6.22625C12.5427 6.05036 12.8866 6.03874 13.1556 6.1972L18.7155 9.47353C19.1867 9.75082 19.2068 10.3926 18.7542 10.6984L13.3875 14.3217C13.1248 14.4992 12.7736 14.505 12.5045 14.337L7.13676 10.9836C6.68254 10.7005 6.66928 10.0746 7.11076 9.77248ZM31.1336 14.9527C30.8295 6.39774 23.6168 -0.292767 15.0223 0.00935407C6.42777 0.311475 -0.293628 7.49161 0.00988778 16.0466C0.313935 24.6016 7.52669 31.2921 16.1212 30.99C24.7157 30.6879 31.4365 23.5077 31.1336 14.9527Z" fill="#F57DC3"/>
</g>
</svg>
